<?xml version="1.0" encoding="UTF-8" standalone="no"?>
<!-- Created with Inkscape (http://www.inkscape.org/) -->

<svg
   width="100"
   height="100"
   viewBox="0 0 26.458333 26.458333"
   version="1.1"
   id="svg1"
   inkscape:export-filename="favicon.svg"
   inkscape:export-xdpi="96"
   inkscape:export-ydpi="96"
   xmlns:inkscape="http://www.inkscape.org/namespaces/inkscape"
   xmlns:sodipodi="http://sodipodi.sourceforge.net/DTD/sodipodi-0.dtd"
   xmlns="http://www.w3.org/2000/svg"
   xmlns:svg="http://www.w3.org/2000/svg">
  <sodipodi:namedview
     id="namedview1"
     pagecolor="#ffffff"
     bordercolor="#999999"
     borderopacity="1"
     inkscape:showpageshadow="2"
     inkscape:pageopacity="0"
     inkscape:pagecheckerboard="0"
     inkscape:deskcolor="#d1d1d1"
     inkscape:document-units="mm" />
  <defs
     id="defs1" />
  <g
     inkscape:label="Layer 1"
     inkscape:groupmode="layer"
     id="layer1">
    <rect
       style="fill:#f3f1ee;fill-opacity:1;stroke-width:1.5875;stroke-linejoin:round;stroke-dasharray:none;paint-order:stroke markers fill"
       id="rect1"
       width="26.458334"
       height="26.458334"
       x="-3.1789145e-07"
       y="-3.1789145e-07"
       ry="5.2916665"
       rx="5.2916665" />
    <g
       id="g9"
       transform="matrix(0.90375289,0,0,0.90375289,0.92978405,1.2702332)">
      <path
         id="path9"
         style="color:#000000;-inkscape-font-specification:'Monospace Bold';fill:#2d2a25;stroke-width:0.861763;stroke-linecap:square;-inkscape-stroke:none;paint-order:stroke markers fill"
         d="m 21.638587,7.3985013 c -0.930575,0 -1.728247,0.447148 -2.442181,1.0892732 V 7.6394239 H 16.33339 V 19.061205 h 2.863016 v -7.020601 c 0.0077,-0.01191 0.0075,-0.01275 0.01693,-0.02672 0.07539,-0.112398 0.203142,-0.28968 0.375412,-0.518363 0.317084,-0.419003 0.644913,-0.716234 0.979277,-0.913813 l 0.0035,-0.0018 0.0031,-0.0018 c 0.334228,-0.202478 0.636036,-0.287622 0.9477,-0.287622 0.345636,0 0.837466,0.11167 1.4442,0.376748 l 0.636374,0.277885 1.127572,-2.6880027 -0.587389,-0.2810022 C 23.344055,7.5945592 22.500035,7.3985013 21.638587,7.3985013 Z" />
      <path
         id="path7"
         style="color:#000000;-inkscape-font-specification:'Monospace Bold';fill:#2d2a25;stroke-width:0.861763;stroke-linecap:square;-inkscape-stroke:none;paint-order:stroke markers fill"
         d="M 2.4879927,7.1344216 V 10.111887 L 7.635098,13.251006 2.4879927,16.31442 v 3.01621 l 8.5841493,-5.153786 v -0.387436 -1.546625 z" />
    </g>
  </g>
</svg>
